<svg xmlns="http://www.w3.org/2000/svg" xmlns:xlink="http://www.w3.org/1999/xlink" width="100.0" height="100.0" viewBox="-10.8 -10.8 21.6 21.6" preserveAspectRatio="xMinYMin meet"><g transform="matrix(1,0,0,-1,0,0.0)"><path fill-rule="evenodd" fill="#66cc99" stroke="#555555" stroke-width="0.43200000000000005" opacity="0.6" d="M 10.0,0.0 L 9.95184726672197,-0.980171403295605 L 9.807852804032306,-1.9509032201612808 L 9.56940335732209,-2.902846772544621 L 9.23879532511287,-3.826834323650894 L 8.819212643483553,-4.713967368259972 L 8.314696123025456,-5.555702330196017 L 7.730104533627374,-6.343932841636449 L 7.071067811865481,-7.071067811865469 L 6.343932841636462,-7.7301045336273635 L 5.555702330196031,-8.314696123025447 L 4.713967368259986,-8.819212643483546 L 3.8268343236509086,-9.238795325112862 L 2.902846772544636,-9.569403357322084 L 1.9509032201612964,-9.807852804032303 L 0.9801714032956209,-9.951847266721966 L 1.6155445744325867e-14,-10.0 L -0.9801714032955888,-9.95184726672197 L -1.9509032201612646,-9.807852804032308 L -2.902846772544605,-9.569403357322093 L -3.8268343236508784,-9.238795325112875 L -4.713967368259957,-8.81921264348356 L -5.555702330196005,-8.314696123025463 L -6.343932841636439,-7.730104533627382 L -7.071067811865462,-7.071067811865488 L -7.730104533627359,-6.343932841636468 L -8.314696123025444,-5.555702330196036 L -8.819212643483542,-4.71396736825999 L -9.238795325112862,-3.8268343236509113 L -9.569403357322084,-2.9028467725446365 L -9.807852804032303,-1.9509032201612948 L -9.951847266721968,-0.9801714032956171 L -10.0,-1.0106430996148605e-14 L -9.95184726672197,0.980171403295597 L -9.807852804032306,1.950903220161275 L -9.569403357322091,2.902846772544617 L -9.23879532511287,3.826834323650892 L -8.819212643483553,4.713967368259972 L -8.314696123025454,5.55570233019602 L -7.730104533627371,6.343932841636453 L -7.071067811865477,7.071067811865475 L -6.343932841636459,7.730104533627367 L -5.55570233019603,8.314696123025447 L -4.713967368259987,8.819212643483546 L -3.8268343236509117,9.238795325112862 L -2.902846772544641,9.569403357322084 L -1.9509032201613041,9.8078528040323 L -0.980171403295631,9.951847266721966 L -2.848232278972479e-14,10.0 L 0.9801714032955743,9.951847266721972 L 1.9509032201612482,9.807852804032311 L 2.902846772544587,9.569403357322098 L 3.826834323650859,9.238795325112884 L 4.713967368259937,8.81921264348357 L 5.555702330195982,8.31469612302548 L 6.3439328416364145,7.730104533627403 L 7.0710678118654355,7.071067811865515 L 7.730104533627332,6.343932841636501 L 8.314696123025417,5.555702330196074 L 8.81921264348352,4.713967368260034 L 9.238795325112841,3.826834323650962 L 9.569403357322066,2.9028467725446925 L 9.80785280403229,1.950903220161357 L 9.95184726672196,0.9801714032956848 L 10.0,8.238535137130597e-14 L 10.0,0.0 z" /></g></svg>